<html>
<head>
<meta charset="UTF-8">
<meta name="viewport" content="width=device-width, initial-scale=1.0"/>

<style>
.comment
{
    padding-left: 20px;
    margin-top: 4px;
    margin-right: 4px;
    margin-bottom: 4px;
    border: 2px #000 solid;
}
.submission
{
    border: 4px #00f solid;
    padding-left: 20px;
}
.hidden
{
    display: none;
}
</style>
</head>
<body><div class="submission" id="t3_6ldmix">
    <p class="userinfo">
        <a href="https://www.reddit.com/u/TheMrMcGibblets">TheMrMcGibblets</a>
        <span class="score"> | 24 points</span>
        <span class="timestamp"> | Jul 05 2017 12:12:13</span>
    </p>
    <strong>[MOVIE] Hidalgo (2004) 1080p BluRay H264 AAC [2.60GB]</strong>
    <p><p>Add mega</p>
<p>.nz/#!VOAGmLgD</p>
<p>!Kfazb03RdiMGwEBUTMTUiljkLosQTEV_J3GIj4BWqFk</p>
<pre><code>Video
ID                                       : 1
Format                                   : AVC
Format/Info                              : Advanced Video Codec
Format profile                           : High@L4.1
Format settings, CABAC                   : Yes
Format settings, ReFrames                : 4 frames
Codec ID                                 : avc1
Codec ID/Info                            : Advanced Video Coding
Duration                                 : 2 h 16 min
Bit rate                                 : 2 500 kb/s
Width                                    : 1 920 pixels
Height                                   : 800 pixels
Display aspect ratio                     : 2.40:1
Frame rate mode                          : Constant
Frame rate                               : 23.976 (23976/1000) FPS
Color space                              : YUV
Chroma subsampling                       : 4:2:0
Bit depth                                : 8 bits
Scan type                                : Progressive
Bits/(Pixel*Frame)                       : 0.068
Stream size                              : 2.38 GiB (92%)
Writing library                          : x264 core 148 r2638M 7599210
Encoding settings                        : cabac=1 / ref=4 / deblock=1:-1:-1 / analyse=0x3:0x113 / me=umh / subme=9 / psy=1 / psy_rd=1.00:0.15 / mixed_ref=1 / me_range=24 / chroma_me=1 / trellis=2 / 8x8dct=1 / cqm=0 / deadzone=21,11 / fast_pskip=1 / chroma_qp_offset=-3 / threads=32 / lookahead_threads=4 / sliced_threads=0 / nr=0 / decimate=1 / interlaced=0 / bluray_compat=0 / constrained_intra=0 / bframes=3 / b_pyramid=2 / b_adapt=2 / b_bias=0 / direct=3 / weightb=1 / open_gop=0 / weightp=2 / keyint=250 / keyint_min=25 / scenecut=40 / intra_refresh=0 / rc_lookahead=50 / rc=2pass / mbtree=1 / bitrate=2500 / ratetol=1.0 / qcomp=0.60 / qpmin=0 / qpmax=69 / qpstep=4 / cplxblur=20.0 / qblur=0.5 / vbv_maxrate=31250 / vbv_bufsize=31250 / nal_hrd=none / filler=0 / ip_ratio=1.40 / aq=3:1.00
Encoded date                             : UTC 2016-11-22 03:19:00
Tagged date                              : UTC 2016-11-22 03:19:00

Audio
ID                                       : 2
Format                                   : AAC
Format/Info                              : Advanced Audio Codec
Format profile                           : LC
Codec ID                                 : 40
Duration                                 : 2 h 16 min
Duration_LastFrame                       : 32 ms
Bit rate mode                            : Constant
Bit rate                                 : 224 kb/s
Channel(s)                               : 2 channels
Channel(s)_Original                      : 6 channels
Channel positions                        : Front: L C R, Side: L R, LFE
Sampling rate                            : 48.0 kHz
Frame rate                               : 46.875 FPS (1024 spf)
Compression mode                         : Lossy
Stream size                              : 219 MiB (8%)
Language                                 : English
Default                                  : Yes
Alternate group                          : 1
Encoded date                             : UTC 2016-11-22 03:19:00
Tagged date                              : UTC 2016-11-22 03:19:00
</code></pre></p>
    <p class="toolbar">
        <a href="https://www.reddit.com/r/megalinks/comments/6ldmix">permalink</a>
    </p>
</div>
<div class="comment" id="t1_djszan9">
    <p class="userinfo">
        <a
        class="toggle_hide_button"
        href="javascript:void(0)"
        onclick="toggle_collapse(this.parentElement.parentElement)">[-]
        </a>
        <a href="https://www.reddit.com/u/boltrop">boltrop</a>
        <span class="score"> | 1 points</span>
        <span class="timestamp"> | Jul 05 2017 12:13:07</span>
    </p>
    <div class="collapsible">
        <h3><a href="https://images-na.ssl-images-amazon.com/images/M/MV5BMTgyNjg5MjcxMl5BMl5BanBnXkFtZTcwNDQxMzQyMQ@@._V1_.jpg">Hidalgo</a> (2004)</h3>
<p><strong>Genre</strong>: Action, Adventure, Biography, Sport, Western</p>
<p><strong>Rating</strong>:  6.7 (70194 votes)</p>
<p><strong>Certification</strong>: PG-13</p>
<p><strong>Runtime</strong>: 136 min</p>
<hr>
<blockquote>
<p><strong>Director(s)</strong>: <a href="https://www.imdb.com/name/nm0002653/">Joe Johnston</a></p>
<p><strong>Writer(s)</strong>: <a href="https://www.imdb.com/name/nm0299301/">John Fusco</a></p>
<p><strong>Cast</strong>: <a href="https://www.imdb.com/name/nm0001557/">Viggo Mortensen</a>, <a href="https://www.imdb.com/name/nm0001725/">Omar Sharif</a>, <a href="https://www.imdb.com/name/nm0733196/">Zuleikha Robinson</a>, <a href="https://www.imdb.com/name/nm0518321/">Louise Lombard</a></p>
<p><strong>Plot</strong>: In 1890, a down-and-out cowboy and his horse travel to Arabia to compete in a deadly cross desert horse race.</p>
</blockquote>
<hr>
<p>^This ^summary ^is ^taken ^from <a href="https://www.imdb.com/title/tt0317648/">^imdb.com</a> ^| ^For ^feedback ^or ^suggestions ^contact <a href="http://www.reddit.com/message/compose/?to=indigo6alpha">^/u/indigo6alpha</a></p>
        <p class="toolbar">
            <a href="https://www.reddit.com/r/megalinks/comments/6ldmix/_/djszan9">permalink</a>
        </p>
        
    </div>
</div>

<div class="comment" id="t1_djszapd">
    <p class="userinfo">
        <a
        class="toggle_hide_button"
        href="javascript:void(0)"
        onclick="toggle_collapse(this.parentElement.parentElement)">[-]
        </a>
        <a href="https://www.reddit.com/u/SubZorro">SubZorro</a>
        <span class="score"> | 1 points</span>
        <span class="timestamp"> | Jul 05 2017 12:13:11</span>
    </p>
    <div class="collapsible">
        <h5>Subtitles for this movie:</h5>
<hr>
<blockquote>
<ul>
<li>
<p><strong>Hidalgo[2004]DvDRip[Eng]-BoBo</strong> - <code>1 CD</code> - <a href="http://dl.opensubtitles.org/en/download/vrf-c7b2f398/sub/3439908">Download Subtitle</a></p>
</li>
<li>
<p><strong>Hidalgo.WS.DVDRiP.XviD-BRUTUS</strong> - <code>2 CD</code> - <a href="http://dl.opensubtitles.org/en/download/vrf-aaf26058/sub/80353">Download Subtitle</a></p>
</li>
<li>
<p><strong>Hidalgo.2004.720p.BluRay.x264-SEPTiC</strong> - <code>1 CD</code> - <a href="http://dl.opensubtitles.org/en/download/vrf-64b99f98/sub/3276881">Download Subtitle</a></p>
</li>
<li>
<p><strong>Hidalgo.(2004).FS.DVDRip.XViD-BRUTUS</strong> - <code>2 CD</code> - <a href="http://dl.opensubtitles.org/en/download/vrf-dde5d674/sub/205542">Download Subtitle</a></p>
</li>
<li>
<p><strong>[Eng]Hidalgo[2004]DvDRip[Eng]-BoBo</strong> - <code>1 CD</code> - <a href="http://dl.opensubtitles.org/en/download/vrf-6e02942c/sub/3253649">Download Subtitle</a></p>
</li>
<li>
<p><strong>Hidalgo.2004.BluRay.720p.x264.YIFY</strong> - <code>1 CD</code> - <a href="http://dl.opensubtitles.org/en/download/vrf-03bb71e5/sub/5649760">Download Subtitle</a></p>
</li>
</ul>
</blockquote>
<hr>
<p>^This ^list ^of ^subtitles ^are ^taken ^from <a href="http://www.opensubtitles.org">^opensubtitles.org</a> ^| ^For ^feedback ^or ^suggestions ^contact <a href="http://www.reddit.com/message/compose/?to=indigo6alpha">^/u/indigo6alpha</a></p>
        <p class="toolbar">
            <a href="https://www.reddit.com/r/megalinks/comments/6ldmix/_/djszapd">permalink</a>
        </p>
        
    </div>
</div>

<div class="comment" id="t1_djt79x0">
    <p class="userinfo">
        <a
        class="toggle_hide_button"
        href="javascript:void(0)"
        onclick="toggle_collapse(this.parentElement.parentElement)">[-]
        </a>
        <a href="https://www.reddit.com/u/grrrrrlj">grrrrrlj</a>
        <span class="score"> | 1 points</span>
        <span class="timestamp"> | Jul 05 2017 15:18:37</span>
    </p>
    <div class="collapsible">
        <p>men go maaaaaad!!!!</p>
        <p class="toolbar">
            <a href="https://www.reddit.com/r/megalinks/comments/6ldmix/_/djt79x0">permalink</a>
        </p>
        
    </div>
</div>
</body>

<script>
function toggle_collapse(comment_div)
{
    var button = comment_div.getElementsByClassName("toggle_hide_button")[0];
    var collapsible = comment_div.getElementsByClassName("collapsible")[0];
    if (collapsible.classList.contains("hidden"))
    {
        collapsible.classList.remove("hidden");
        button.innerText = "[-]";
    }
    else
    {
        collapsible.classList.add("hidden");
        button.innerText = "[+]";
    }
}
</script>
</html>
